<svg width="24" height="22" viewBox="0 0 24 22" fill="none" xmlns="http://www.w3.org/2000/svg">
<path d="M17 20V18C17 16.9391 16.5786 15.9217 15.8284 15.1716C15.0783 14.4214 14.0609 14 13 14H5C3.93913 14 2.92172 14.4214 2.17157 15.1716C1.42143 15.9217 1 16.9391 1 18V20M23 20V18C22.9993 17.1137 22.7044 16.2528 22.1614 15.5523C21.6184 14.8519 20.8581 14.3516 20 14.13M16 2.13C16.8604 2.3503 17.623 2.8507 18.1676 3.55231C18.7122 4.25392 19.0078 5.11683 19.0078 6.005C19.0078 6.89317 18.7122 7.75608 18.1676 8.45769C17.623 9.1593 16.8604 9.6597 16 9.88M13 6C13 8.20914 11.2091 10 9 10C6.79086 10 5 8.20914 5 6C5 3.79086 6.79086 2 9 2C11.2091 2 13 3.79086 13 6Z" stroke="#D9D9D9" stroke-width="4" stroke-linecap="round" stroke-linejoin="round"/>
</svg>
